<svg preserveAspectRatio="none" width="100%" height="100%" overflow="visible" style="display: block;" viewBox="0 0 307 322.113" fill="none" xmlns="http://www.w3.org/2000/svg">
<g id="Light" filter="url(#filter0_d_0_284)">
<path id="Ellipse 34" opacity="0.1" d="M224.256 90.988C246.357 105.987 234.532 114.785 237.284 137.098C240.222 160.921 256.368 198.407 236.729 218.29C198.697 256.797 129.412 264.297 83.7137 233.283C59.1 216.579 66.8012 180.39 66.1306 155.436C65.5561 134.061 53.3342 124.11 71.2405 105.981C110.05 66.687 178.558 59.9745 224.256 90.988Z" fill="url(#paint0_linear_0_284)"/>
<path id="Ellipse 35" opacity="0.1" d="M63.9445 162.599C63.0127 139.963 60.9242 125.193 76.5982 109.641C93.3331 93.0359 92.7951 74.6454 119.272 74.0748C170.548 72.9698 240.092 117.724 242.019 164.528C243.056 189.737 210.746 207.644 191.855 223.589C175.671 237.247 174.908 250.796 150.766 251.316C98.442 252.444 65.8713 209.403 63.9445 162.599Z" fill="url(#paint1_linear_0_284)"/>
<path id="Ellipse 36" opacity="0.1" d="M224.329 239.343C204.146 256.838 200.946 244.339 176.057 243.146C149.483 241.872 101.292 250.641 82.8781 229.618C47.2182 188.905 50.8208 125.068 92.5531 88.8937C115.031 69.4096 153.325 82.3361 180.749 85.8455C204.241 88.8517 217.215 79.45 234.004 98.6186C270.393 140.164 266.061 203.169 224.329 239.343Z" fill="url(#paint2_linear_0_284)"/>
<path id="Ellipse 37" opacity="0.1" d="M159.916 253.289C133.22 252.416 109.319 240.898 91.9543 223.117C73.4138 204.132 62.3237 178.007 63.2369 150.075C65.0054 95.9817 111.252 51.5912 166.451 53.3958C196.182 54.3678 215.322 89.8628 232.957 111.065C248.063 129.228 263.963 131.142 263.13 156.61C261.325 211.809 215.115 255.094 159.916 253.289Z" fill="var(--fill-0, white)"/>
<path id="Ellipse 38" opacity="0.1" d="M164.916 254.289C138.22 253.416 114.319 241.898 96.9543 224.117C78.4138 205.132 67.3237 179.007 68.2369 151.075C70.0054 96.9817 116.252 52.5912 171.451 54.3958C201.182 55.3678 220.322 90.8628 237.957 112.065C253.063 130.228 268.963 132.142 268.13 157.61C266.325 212.809 220.115 256.094 164.916 254.289Z" fill="url(#paint3_linear_0_284)"/>
<path id="Ellipse 39" opacity="0.1" d="M219.513 237.981C199.258 255.393 180.939 246.101 156.122 244.747C129.625 243.301 96.7106 248.529 78.4925 227.336C43.2115 186.294 47.256 122.318 89.137 86.316C111.695 66.9248 149.799 80.1263 177.129 83.8181C200.54 86.9806 213.546 77.6371 230.157 96.9605C266.159 138.842 261.394 201.978 219.513 237.981Z" fill="url(#paint4_linear_0_284)"/>
<path id="Ellipse 40" opacity="0.1" d="M146.754 247.932C120.057 247.113 96.133 235.643 78.7323 217.897C60.1537 198.949 49.0112 172.846 49.8683 144.912C51.5281 90.8157 97.6856 46.3324 152.888 48.0262C182.621 48.9385 201.832 84.395 219.509 105.562C234.652 123.694 250.556 125.576 249.774 151.046C248.08 206.248 201.957 249.626 146.754 247.932Z" fill="url(#paint5_linear_0_284)"/>
<path id="Ellipse 41" opacity="0.1" d="M84.7 87.0045C101.455 66.2033 111.057 76.8509 135.707 73.6747C162.026 70.2835 203.544 54.3266 225.308 71.8579C267.457 105.809 275.1 169.455 240.455 212.466C221.794 235.632 181.925 229.571 154.38 230.904C130.784 232.047 119.691 243.597 99.8466 227.612C56.8362 192.967 50.0548 130.015 84.7 87.0045Z" fill="url(#paint6_linear_0_284)"/>
<path id="Ellipse 42" opacity="0.1" d="M169.994 231.32C147.355 232.181 132.608 234.222 116.785 218.509C99.892 201.731 81.4955 202.212 80.4892 175.748C78.5403 124.497 122.187 55.1313 168.997 53.3512C194.209 52.3925 212.661 84.7403 228.929 103.671C242.865 119.888 256.437 120.693 257.355 144.823C259.344 197.122 216.804 229.54 169.994 231.32Z" fill="url(#paint7_linear_0_284)"/>
<path id="Ellipse 43" opacity="0.1" d="M253.969 162.128C253.969 188.838 242.429 183.01 225.224 200.947C206.855 220.098 181.916 262.128 153.969 262.128C99.8473 262.128 53.9694 217.357 53.9694 162.128C53.9694 132.381 88.82 112.092 109.435 93.7738C127.094 78.0823 128.488 62.1282 153.969 62.1282C209.198 62.1282 253.969 106.9 253.969 162.128Z" fill="url(#paint8_linear_0_284)"/>
<path id="Ellipse 44" opacity="0.1" d="M207.193 246.422C189.737 266.639 174.404 256.562 153.428 255.635C131.032 254.645 103.084 261.37 88.0519 237.811C58.9406 192.185 63.5231 119.621 99.6165 77.8184C119.057 55.3031 151.062 69.3254 174.122 72.8394C193.875 75.8496 205.051 64.9485 218.758 86.4302C248.464 132.989 243.286 204.62 207.193 246.422Z" fill="url(#paint9_linear_0_284)"/>
<path id="Ellipse 45" opacity="0.1" d="M240.849 112.402C248.772 137.911 246.622 166.353 236.956 191.932C226.636 219.243 207.747 243.289 183.403 257.014C136.258 283.595 83.0138 263.371 66.6317 210.628C57.8081 182.22 82.1477 145.727 94.6716 118.109C105.4 94.4507 101.881 78.5304 124.078 66.0156C172.187 38.8915 224.467 59.6596 240.849 112.402Z" fill="url(#paint10_linear_0_284)"/>
<path id="Ellipse 46" opacity="0.1" d="M87.3545 96.5617C98.9428 77.1791 106.363 87.9467 124.359 86.0154C143.573 83.9533 173.516 70.4189 190.108 88.4251C222.239 123.296 230.052 185.344 206.091 225.421C193.185 247.007 163.692 239.277 143.506 239.287C126.215 239.296 118.466 249.976 103.338 233.558C70.5494 197.974 63.3935 136.639 87.3545 96.5617Z" fill="url(#paint11_linear_0_284)"/>
<path id="Ellipse 47" opacity="0.1" d="M178.584 232.993C156.382 234.13 141.906 236.357 126.535 220.777C110.124 204.143 92.0841 204.847 91.3348 178.299C89.8836 126.885 133.295 56.7388 179.202 54.3868C203.928 53.12 221.728 85.363 237.507 104.166C251.023 120.274 264.322 120.918 265.005 145.125C266.486 197.59 224.491 230.641 178.584 232.993Z" fill="url(#paint12_linear_0_284)"/>
<path id="Ellipse 48" opacity="0.1" d="M177.905 245.463C151.907 251.589 154.933 239.02 133.529 226.388C110.675 212.901 64.0452 198.267 57.6352 171.065C45.2217 118.386 78.2771 63.4621 132.033 50.7948C160.987 43.972 188.729 73.2399 211.287 89.1039C230.611 102.693 246.459 100.39 252.303 125.193C264.971 178.949 231.662 232.796 177.905 245.463Z" fill="url(#paint13_linear_0_284)"/>
<path id="Ellipse 49" opacity="0.1" d="M253.969 138.628C253.969 159.061 242.429 154.603 225.224 168.324C206.855 182.975 181.916 215.128 153.969 215.128C99.8473 215.128 53.9694 180.878 53.9694 138.628C53.9694 115.872 88.82 100.35 109.435 86.337C127.094 74.3331 128.488 62.1282 153.969 62.1282C209.198 62.1282 253.969 96.3784 253.969 138.628Z" fill="url(#paint14_linear_0_284)"/>
<path id="Ellipse 50" opacity="0.1" d="M219.68 75.5866C238.359 88.2631 248.954 106.231 251.28 125.089C253.763 145.223 246.819 166.372 230.222 183.176C198.079 215.72 139.523 222.058 100.901 195.847C80.0985 181.73 86.6071 151.144 86.0404 130.055C85.5549 111.989 75.2255 103.58 90.359 88.2576C123.159 55.0486 181.058 49.3756 219.68 75.5866Z" fill="url(#paint15_linear_0_284)"/>
<path id="Ellipse 51" opacity="0.1" d="M168.313 258.947C140.43 263.728 144.448 250.637 122.644 235.888C99.3631 220.14 51.0217 201.629 46.0191 172.454C36.3309 115.954 74.8571 60.0459 132.512 50.1597C163.566 44.8348 190.986 77.5847 213.798 95.8264C233.341 111.453 250.245 110.051 254.806 136.653C264.693 194.308 225.968 249.061 168.313 258.947Z" fill="url(#paint16_linear_0_284)"/>
<path id="Ellipse 52" opacity="0.1" d="M235.443 219.835C254.548 201.168 244.59 184.814 243.319 162.421C241.962 138.513 247.916 108.666 225.011 92.6533C180.654 61.6436 111.029 66.6461 71.5264 105.243C50.2497 126.031 64.3 160.179 68.0936 184.792C71.3433 205.876 61.0739 217.824 81.9583 232.424C127.223 264.068 195.94 258.431 235.443 219.835Z" fill="url(#paint17_linear_0_284)"/>
<path id="Ellipse 53" opacity="0.1" d="M183.064 81.4579C200.134 98.1063 209.997 120.898 212.411 144.371C214.989 169.433 209.076 195.272 194.378 215.242C165.913 253.914 113.172 258.79 77.8767 224.366C58.8664 205.825 64.2289 168.276 63.3647 142.129C62.6244 119.73 53.1614 108.79 66.5632 90.5823C95.61 51.1193 147.769 47.0342 183.064 81.4579Z" fill="url(#paint18_linear_0_284)"/>
<path id="Ellipse 54" opacity="0.5" d="M82.1805 83.2601C89.019 73.9693 99.6137 67.3037 112.21 63.0988C124.812 58.8924 139.451 57.1368 154.422 57.6938C184.347 58.8074 215.708 69.1696 234.847 87.836C239.526 92.4 241.63 97.1026 242.171 101.972C242.708 106.813 241.694 111.76 240.251 116.801C238.796 121.888 236.928 127.009 235.645 132.412C234.37 137.783 233.707 143.319 234.671 149.084C238.893 174.306 234.491 199.629 220.702 218.362C193.994 254.647 140.373 255.006 102.172 217.748C97.0784 212.78 91.9777 209.042 87.142 205.822C82.3263 202.615 77.7148 199.884 73.7018 196.99C69.6721 194.083 66.1695 190.962 63.5166 186.901C60.8583 182.831 59.0725 177.849 58.4327 171.256C57.3398 159.995 60.1563 142.247 64.7819 125.238C69.4081 108.226 75.8812 91.8182 82.1805 83.2601Z" stroke="var(--stroke-0, #E0F2FF)"/>
<path id="Ellipse 55" opacity="0.5" d="M48.7405 158.134C47.5225 146.327 51.476 133.947 58.9783 122.073C66.4842 110.194 77.5656 98.7845 90.6738 88.9121C116.879 69.1755 151.269 55.5212 181.551 56.5991C188.936 56.862 194.244 58.9937 198.365 62.3272C202.469 65.6468 205.343 70.1176 207.928 74.961C210.535 79.8473 212.817 85.0384 215.809 90.0457C218.781 95.0193 222.4 99.7058 227.579 103.448C250.185 119.784 265.578 142.139 268.034 165.939C270.412 188.985 260.289 209.801 242.042 224.57C223.794 239.341 197.4 248.088 167.155 247.011C150.96 246.435 138.582 249.646 127.33 250.757C121.726 251.311 116.416 251.336 111.121 250.066C105.817 248.794 100.556 246.23 95.042 241.643C85.6194 233.805 74.6073 218.323 65.6857 202.156C56.7649 185.99 49.8623 169.007 48.7405 158.134Z" stroke="var(--stroke-0, #D9FDFD)"/>
<path id="Ellipse 56" opacity="0.1" d="M187.829 60.2563C200.524 62.5469 212.533 69.6271 223.123 79.7544C233.717 89.8847 242.915 103.086 249.984 117.666C264.116 146.808 269.789 181.557 260.982 208.412C258.845 214.927 256.062 218.46 252.646 220.208C249.26 221.94 245.39 221.837 241.277 221.407C232.962 220.537 223.361 218.318 212.902 225.425C201.462 233.2 185.688 241.633 169.578 247.548C153.482 253.457 136.973 256.884 124.105 254.562C74.503 245.612 46.8173 194.503 64.401 140.887C69.1049 126.544 71.7821 117.992 76.3841 111.254C81.0095 104.483 87.5531 99.5745 99.8567 92.4066C110.39 86.2699 126.511 77.1883 142.91 70.1638C151.109 66.6514 159.392 63.6479 167.089 61.7849C174.78 59.9234 181.925 59.1909 187.829 60.2563Z" stroke="var(--stroke-0, #D2BEFD)"/>
</g>
<defs>
<filter id="filter0_d_0_284" x="41.5281" y="43.9794" width="232.352" height="228.707" filterUnits="userSpaceOnUse" color-interpolation-filters="sRGB">
<feFlood flood-opacity="0" result="BackgroundImageFix"/>
<feColorMatrix in="SourceAlpha" type="matrix" values="0 0 0 0 0 0 0 0 0 0 0 0 0 0 0 0 0 0 127 0" result="hardAlpha"/>
<feOffset dx="1"/>
<feGaussianBlur stdDeviation="2"/>
<feComposite in2="hardAlpha" operator="out"/>
<feColorMatrix type="matrix" values="0 0 0 0 0 0 0 0 0 0 0 0 0 0 0 0 0 0 0.15 0"/>
<feBlend mode="normal" in2="BackgroundImageFix" result="effect1_dropShadow_0_284"/>
<feBlend mode="normal" in="SourceGraphic" in2="effect1_dropShadow_0_284" result="shape"/>
</filter>
<linearGradient id="paint0_linear_0_284" x1="71.2405" y1="105.981" x2="211.161" y2="244.178" gradientUnits="userSpaceOnUse">
<stop stop-color="#F3F3FD"/>
<stop offset="0.546875" stop-color="#F3F3FD" stop-opacity="0.0989583"/>
<stop offset="1" stop-color="#F3F3FD" stop-opacity="0"/>
</linearGradient>
<linearGradient id="paint1_linear_0_284" x1="156.571" y1="251.191" x2="152.739" y2="73.3536" gradientUnits="userSpaceOnUse">
<stop stop-color="#D1BBFD"/>
<stop offset="0.411458" stop-color="#D1BBFD" stop-opacity="0.109375"/>
<stop offset="1" stop-color="#D1BBFD" stop-opacity="0"/>
</linearGradient>
<linearGradient id="paint2_linear_0_284" x1="234.004" y1="98.6186" x2="83.5565" y2="230.393" gradientUnits="userSpaceOnUse">
<stop stop-color="#D8F7F9" stop-opacity="0"/>
<stop offset="0.723958" stop-color="#D8F7F9" stop-opacity="0.0885417"/>
<stop offset="1" stop-color="#D8F7F9"/>
</linearGradient>
<linearGradient id="paint3_linear_0_284" x1="268.13" y1="157.61" x2="68.2369" y2="151.075" gradientUnits="userSpaceOnUse">
<stop stop-color="#E1F1FE"/>
<stop offset="0.421875" stop-color="#E1F1FE" stop-opacity="0.0989583"/>
<stop offset="1" stop-color="#E1F1FE" stop-opacity="0"/>
</linearGradient>
<linearGradient id="paint4_linear_0_284" x1="230.157" y1="96.9605" x2="78.4925" y2="227.336" gradientUnits="userSpaceOnUse">
<stop stop-color="#E2E4FA"/>
<stop offset="0.510417" stop-color="#C5C8FD" stop-opacity="0.0989583"/>
<stop offset="1" stop-color="#C2C5FD" stop-opacity="0"/>
</linearGradient>
<linearGradient id="paint5_linear_0_284" x1="249.774" y1="151.046" x2="49.8683" y2="144.912" gradientUnits="userSpaceOnUse">
<stop stop-color="#F3DAFA"/>
<stop offset="0.307292" stop-color="#F3DAFA" stop-opacity="0.0885417"/>
<stop offset="1" stop-color="#F3DAFA" stop-opacity="0"/>
</linearGradient>
<linearGradient id="paint6_linear_0_284" x1="99.8466" y1="227.612" x2="225.308" y2="71.8579" gradientUnits="userSpaceOnUse">
<stop stop-color="#F3F3FD"/>
<stop offset="0.546875" stop-color="#F3F3FD" stop-opacity="0.0989583"/>
<stop offset="1" stop-color="#F3F3FD" stop-opacity="0"/>
</linearGradient>
<linearGradient id="paint7_linear_0_284" x1="257.134" y1="139.021" x2="79.3497" y2="145.781" gradientUnits="userSpaceOnUse">
<stop stop-color="#D1BBFD"/>
<stop offset="0.411458" stop-color="#D1BBFD" stop-opacity="0.109375"/>
<stop offset="1" stop-color="#D1BBFD" stop-opacity="0"/>
</linearGradient>
<linearGradient id="paint8_linear_0_284" x1="153.969" y1="62.1282" x2="153.969" y2="262.128" gradientUnits="userSpaceOnUse">
<stop stop-color="#D8F7F9"/>
<stop offset="0.453125" stop-color="#D8F7F9" stop-opacity="0.0885417"/>
<stop offset="1" stop-color="#D8F7F9" stop-opacity="0"/>
</linearGradient>
<linearGradient id="paint9_linear_0_284" x1="218.758" y1="86.4302" x2="57.2246" y2="189.495" gradientUnits="userSpaceOnUse">
<stop stop-color="#E2E4FA"/>
<stop offset="0.510417" stop-color="#C5C8FD" stop-opacity="0.0989583"/>
<stop offset="1" stop-color="#C2C5FD" stop-opacity="0"/>
</linearGradient>
<linearGradient id="paint10_linear_0_284" x1="124.078" y1="66.0156" x2="220.1" y2="236.325" gradientUnits="userSpaceOnUse">
<stop stop-color="#F3DAFA"/>
<stop offset="0.307292" stop-color="#F3DAFA" stop-opacity="0.0885417"/>
<stop offset="1" stop-color="#F3DAFA" stop-opacity="0"/>
</linearGradient>
<linearGradient id="paint11_linear_0_284" x1="103.338" y1="233.558" x2="222.589" y2="123.675" gradientUnits="userSpaceOnUse">
<stop stop-color="#F3F3FD"/>
<stop offset="0.546875" stop-color="#F3F3FD" stop-opacity="0.0989583"/>
<stop offset="1" stop-color="#F3F3FD" stop-opacity="0"/>
</linearGradient>
<linearGradient id="paint12_linear_0_284" x1="264.841" y1="139.304" x2="90.3732" y2="144.228" gradientUnits="userSpaceOnUse">
<stop stop-color="#D1BBFD"/>
<stop offset="0.411458" stop-color="#D1BBFD" stop-opacity="0.109375"/>
<stop offset="1" stop-color="#D1BBFD" stop-opacity="0"/>
</linearGradient>
<linearGradient id="paint13_linear_0_284" x1="252.303" y1="125.193" x2="57.6352" y2="171.065" gradientUnits="userSpaceOnUse">
<stop stop-color="#D8F7F9"/>
<stop offset="0.453125" stop-color="#D8F7F9" stop-opacity="0.0885417"/>
<stop offset="1" stop-color="#D8F7F9" stop-opacity="0"/>
</linearGradient>
<linearGradient id="paint14_linear_0_284" x1="153.969" y1="62.1282" x2="153.969" y2="215.128" gradientUnits="userSpaceOnUse">
<stop stop-color="#D8F7F9"/>
<stop offset="0.453125" stop-color="#D8F7F9" stop-opacity="0.0885417"/>
<stop offset="1" stop-color="#D8F7F9" stop-opacity="0"/>
</linearGradient>
<linearGradient id="paint15_linear_0_284" x1="90.359" y1="88.2576" x2="208.613" y2="205.055" gradientUnits="userSpaceOnUse">
<stop stop-color="#E1F1FE"/>
<stop offset="0.421875" stop-color="#E1F1FE" stop-opacity="0.0989583"/>
<stop offset="1" stop-color="#E1F1FE" stop-opacity="0"/>
</linearGradient>
<linearGradient id="paint16_linear_0_284" x1="254.806" y1="136.653" x2="46.0191" y2="172.454" gradientUnits="userSpaceOnUse">
<stop stop-color="#D8F7F9"/>
<stop offset="0.453125" stop-color="#D8F7F9" stop-opacity="0.0885417"/>
<stop offset="1" stop-color="#D8F7F9" stop-opacity="0"/>
</linearGradient>
<linearGradient id="paint17_linear_0_284" x1="81.9583" y1="232.424" x2="194.555" y2="71.3619" gradientUnits="userSpaceOnUse">
<stop stop-color="#E2E4FA"/>
<stop offset="0.510417" stop-color="#C5C8FD" stop-opacity="0.0989583"/>
<stop offset="1" stop-color="#C2C5FD" stop-opacity="0"/>
</linearGradient>
<linearGradient id="paint18_linear_0_284" x1="66.5632" y1="90.5823" x2="208.978" y2="195.407" gradientUnits="userSpaceOnUse">
<stop stop-color="#F3DAFA"/>
<stop offset="0.307292" stop-color="#F3DAFA" stop-opacity="0.0885417"/>
<stop offset="1" stop-color="#F3DAFA" stop-opacity="0"/>
</linearGradient>
</defs>
</svg>
