<svg preserveAspectRatio="none" width="100%" height="100%" overflow="visible" style="display: block;" viewBox="0 0 307 319.984" fill="none" xmlns="http://www.w3.org/2000/svg">
<g id="Bold" filter="url(#filter0_d_0_417)">
<path id="Ellipse 14" opacity="0.2" d="M63.9445 160.471C63.0127 137.835 60.9242 123.065 76.5982 107.513C93.3331 90.9077 92.7951 72.5172 119.272 71.9466C170.548 70.8416 240.092 115.595 242.019 162.4C243.056 187.609 210.746 205.516 191.855 221.46C175.671 235.119 174.908 248.668 150.766 249.188C98.442 250.316 65.8713 207.275 63.9445 160.471Z" fill="url(#paint0_radial_0_417)"/>
<path id="Ellipse 16" d="M159.916 251.161C133.22 250.288 109.319 238.77 91.9543 220.989C73.4138 202.004 62.3237 175.879 63.2369 147.947C65.0054 93.8535 111.252 49.463 166.451 51.2676C196.182 52.2396 215.322 87.7346 232.957 108.937C248.063 127.1 263.963 129.014 263.13 154.482C261.325 209.681 215.115 252.965 159.916 251.161Z" fill="var(--fill-0, white)"/>
<path id="Ellipse 17" opacity="0.2" d="M164.916 252.161C138.22 251.288 114.319 239.77 96.9543 221.989C78.4138 203.004 67.3237 176.879 68.2369 148.947C70.0054 94.8535 116.252 50.463 171.451 52.2676C201.182 53.2396 220.322 88.7346 237.957 109.937C253.063 128.1 268.963 130.014 268.13 155.482C266.325 210.681 220.115 253.965 164.916 252.161Z" fill="url(#paint1_radial_0_417)"/>
<path id="Ellipse 19" opacity="0.2" d="M146.754 245.804C120.057 244.985 96.133 233.515 78.7323 215.768C60.1537 196.821 49.0112 170.718 49.8683 142.784C51.5281 88.6875 97.6856 44.2042 152.888 45.898C182.621 46.8103 201.832 82.2668 219.509 103.434C234.652 121.566 250.556 123.448 249.774 148.918C248.08 204.12 201.957 247.498 146.754 245.804Z" fill="url(#paint2_radial_0_417)"/>
<path id="Ellipse 21" opacity="0.2" d="M169.994 229.192C147.355 230.053 132.608 232.094 116.785 216.381C99.892 199.603 81.4955 200.084 80.4892 173.619C78.5403 122.369 122.187 53.0031 168.997 51.223C194.209 50.2643 212.661 82.6121 228.929 101.543C242.865 117.76 256.437 118.565 257.355 142.695C259.344 194.993 216.804 227.412 169.994 229.192Z" fill="url(#paint3_radial_0_417)"/>
<path id="Ellipse 22" opacity="0.2" d="M253.969 160C253.969 186.71 242.429 180.882 225.224 198.819C206.855 217.97 181.916 260 153.969 260C99.8473 260 53.9694 215.228 53.9694 160C53.9694 130.253 88.82 109.963 109.435 91.6456C127.094 75.9541 128.488 60 153.969 60C209.198 60 253.969 104.772 253.969 160Z" fill="url(#paint4_radial_0_417)"/>
<path id="Ellipse 23" opacity="0.2" d="M207.193 244.294C189.737 264.511 174.404 254.434 153.428 253.507C131.032 252.517 103.084 259.242 88.0519 235.682C58.9406 190.056 63.5231 117.493 99.6165 75.6902C119.057 53.1749 151.062 67.1972 174.122 70.7112C193.875 73.7214 205.051 62.8203 218.758 84.302C248.464 130.861 243.286 202.492 207.193 244.294Z" fill="url(#paint5_radial_0_417)"/>
<path id="Ellipse 24" opacity="0.2" d="M240.849 110.274C248.772 135.782 246.622 164.225 236.956 189.804C226.636 217.114 207.747 241.161 183.403 254.886C136.258 281.467 83.0138 261.242 66.6317 208.499C57.8081 180.092 82.1477 143.599 94.6716 115.981C105.4 92.3225 101.881 76.4022 124.078 63.8874C172.187 36.7633 224.467 57.5314 240.849 110.274Z" fill="url(#paint6_radial_0_417)"/>
<path id="Ellipse 25" opacity="0.2" d="M87.3545 94.4335C98.9428 75.0509 106.363 85.8185 124.359 83.8872C143.573 81.8251 173.516 68.2907 190.108 86.2969C222.239 121.168 230.052 183.216 206.091 223.293C193.185 244.879 163.692 237.149 143.506 237.159C126.215 237.168 118.466 247.847 103.338 231.43C70.5494 195.846 63.3935 134.511 87.3545 94.4335Z" fill="url(#paint7_radial_0_417)"/>
<path id="Ellipse 26" opacity="0.2" d="M178.584 230.865C156.382 232.002 141.906 234.229 126.535 218.649C110.124 202.015 92.0841 202.719 91.3348 176.171C89.8836 124.756 133.295 54.6106 179.202 52.2586C203.928 50.9918 221.728 83.2348 237.507 102.038C251.023 118.146 264.322 118.79 265.005 142.997C266.486 195.462 224.491 228.513 178.584 230.865Z" fill="url(#paint8_radial_0_417)"/>
<path id="Ellipse 27" opacity="0.2" d="M177.905 243.335C151.907 249.461 154.933 236.891 133.529 224.26C110.675 210.773 64.0452 196.139 57.6352 168.937C45.2217 116.258 78.2771 61.3339 132.033 48.6666C160.987 41.8439 188.729 71.1117 211.287 86.9757C230.611 100.565 246.459 98.2621 252.303 123.065C264.971 176.821 231.662 230.668 177.905 243.335Z" fill="url(#paint9_radial_0_417)"/>
<path id="Ellipse 31" opacity="0.2" d="M253.969 136.5C253.969 156.933 242.429 152.475 225.224 166.196C206.855 180.847 181.916 213 153.969 213C99.8473 213 53.9694 178.75 53.9694 136.5C53.9694 113.744 88.82 98.222 109.435 84.2089C127.094 72.2049 128.488 60 153.969 60C209.198 60 253.969 94.2502 253.969 136.5Z" fill="url(#paint10_radial_0_417)"/>
<path id="Ellipse 28" opacity="0.2" d="M219.68 73.4584C238.359 86.1349 248.954 104.103 251.28 122.961C253.763 143.095 246.819 164.243 230.222 181.048C198.079 213.592 139.523 219.93 100.901 193.719C80.0985 179.601 86.6071 149.016 86.0404 127.927C85.5549 109.861 75.2255 101.452 90.359 86.1295C123.159 52.9204 181.058 47.2474 219.68 73.4584Z" fill="url(#paint11_radial_0_417)"/>
<path id="Ellipse 32" opacity="0.2" d="M168.313 256.819C140.43 261.6 144.448 248.509 122.644 233.76C99.3631 218.012 51.0217 199.501 46.0191 170.326C36.3309 113.826 74.8571 57.9178 132.512 48.0315C163.566 42.7067 190.986 75.4565 213.798 93.6982C233.341 109.324 250.245 107.923 254.806 134.525C264.693 192.18 225.968 246.933 168.313 256.819Z" fill="url(#paint12_radial_0_417)"/>
<path id="Ellipse 30" opacity="0.2" d="M183.064 79.3297C200.134 95.9781 209.997 118.77 212.411 142.243C214.989 167.305 209.076 193.144 194.378 213.114C165.913 251.786 113.172 256.662 77.8767 222.238C58.8664 203.697 64.2289 166.148 63.3647 140C62.6244 117.602 53.1614 106.662 66.5632 88.4541C95.61 48.9911 147.769 44.906 183.064 79.3297Z" fill="url(#paint13_radial_0_417)"/>
<path id="Ellipse 13" opacity="0.2" d="M224.256 88.8598C246.357 103.859 234.532 112.657 237.284 134.969C240.222 158.793 256.368 196.279 236.729 216.162C198.697 254.669 129.412 262.168 83.7137 231.155C59.1 214.451 66.8012 178.261 66.1306 153.308C65.5561 131.932 53.3342 121.982 71.2405 103.852C110.05 64.5588 178.558 57.8464 224.256 88.8598Z" fill="url(#paint14_radial_0_417)"/>
<path id="Ellipse 15" opacity="0.2" d="M224.329 237.215C204.146 254.71 200.946 242.211 176.057 241.018C149.483 239.744 101.292 248.513 82.8781 227.49C47.2182 186.777 50.8208 122.94 92.5531 86.7655C115.031 67.2815 153.325 80.2079 180.749 83.7173C204.241 86.7235 217.215 77.3218 234.004 96.4904C270.393 138.036 266.061 201.041 224.329 237.215Z" fill="url(#paint15_radial_0_417)"/>
<path id="Ellipse 18" opacity="0.2" d="M219.513 235.853C199.258 253.264 180.939 243.973 156.122 242.619C129.625 241.173 96.7106 246.401 78.4925 225.208C43.2115 184.166 47.256 120.19 89.137 84.1879C111.695 64.7966 149.799 77.9981 177.129 81.6899C200.54 84.8524 213.546 75.5089 230.157 94.8323C266.159 136.713 261.394 199.85 219.513 235.853Z" fill="url(#paint16_radial_0_417)"/>
<path id="Ellipse 20" opacity="0.2" d="M84.7 84.8763C101.455 64.0751 111.057 74.7227 135.707 71.5465C162.026 68.1553 203.544 52.1984 225.308 69.7297C267.457 103.681 275.1 167.327 240.455 210.338C221.794 233.503 181.925 227.443 154.38 228.776C130.784 229.919 119.691 241.469 99.8466 225.484C56.8362 190.839 50.0548 127.887 84.7 84.8763Z" fill="url(#paint17_radial_0_417)"/>
<path id="Ellipse 29" opacity="0.2" d="M235.443 217.707C254.548 199.04 244.59 182.686 243.319 160.293C241.962 136.385 247.916 106.538 225.011 90.5252C180.654 59.5154 111.029 64.5179 71.5264 103.115C50.2497 123.903 64.3 158.051 68.0936 182.664C71.3433 203.748 61.0739 215.696 81.9583 230.296C127.223 261.94 195.94 256.303 235.443 217.707Z" fill="url(#paint18_radial_0_417)"/>
</g>
<defs>
<filter id="filter0_d_0_417" x="40.5281" y="41.8512" width="231.633" height="228.707" filterUnits="userSpaceOnUse" color-interpolation-filters="sRGB">
<feFlood flood-opacity="0" result="BackgroundImageFix"/>
<feColorMatrix in="SourceAlpha" type="matrix" values="0 0 0 0 0 0 0 0 0 0 0 0 0 0 0 0 0 0 127 0" result="hardAlpha"/>
<feOffset/>
<feGaussianBlur stdDeviation="2"/>
<feComposite in2="hardAlpha" operator="out"/>
<feColorMatrix type="matrix" values="0 0 0 0 0 0 0 0 0 0 0 0 0 0 0 0 0 0 0.15 0"/>
<feBlend mode="normal" in2="BackgroundImageFix" result="effect1_dropShadow_0_417"/>
<feBlend mode="normal" in="SourceGraphic" in2="effect1_dropShadow_0_417" result="shape"/>
</filter>
<radialGradient id="paint0_radial_0_417" cx="0" cy="0" r="1" gradientTransform="matrix(-3.65895 -88.8813 88.9359 -1.91659 152.913 160.182)" gradientUnits="userSpaceOnUse">
<stop stop-color="#D1BBFD" stop-opacity="0"/>
<stop offset="0.411458" stop-color="#D1BBFD" stop-opacity="0.109375"/>
<stop offset="1" stop-color="#D1BBFD"/>
</radialGradient>
<radialGradient id="paint1_radial_0_417" cx="0" cy="0" r="1" gradientUnits="userSpaceOnUse" gradientTransform="translate(168.184 152.214) rotate(-178.128) scale(100)">
<stop stop-color="#E1F1FE" stop-opacity="0"/>
<stop offset="0.421875" stop-color="#E1F1FE" stop-opacity="0.0989583"/>
<stop offset="1" stop-color="#E1F1FE"/>
</radialGradient>
<radialGradient id="paint2_radial_0_417" cx="0" cy="0" r="1" gradientUnits="userSpaceOnUse" gradientTransform="translate(149.821 145.851) rotate(-178.243) scale(100)">
<stop stop-color="#F3DAFA" stop-opacity="0"/>
<stop offset="0.307292" stop-color="#F3DAFA" stop-opacity="0.0885417"/>
<stop offset="0.848958" stop-color="#F3DAFA"/>
</radialGradient>
<radialGradient id="paint3_radial_0_417" cx="0" cy="0" r="1" gradientUnits="userSpaceOnUse" gradientTransform="translate(168.242 140.273) rotate(177.822) scale(88.9566)">
<stop stop-color="#D1BBFD" stop-opacity="0"/>
<stop offset="0.411458" stop-color="#D1BBFD" stop-opacity="0.109375"/>
<stop offset="1" stop-color="#D1BBFD"/>
</radialGradient>
<radialGradient id="paint4_radial_0_417" cx="0" cy="0" r="1" gradientUnits="userSpaceOnUse" gradientTransform="translate(153.969 160) rotate(90) scale(100)">
<stop stop-color="#D8F7F9" stop-opacity="0"/>
<stop offset="0.453125" stop-color="#D8F7F9" stop-opacity="0.0885417"/>
<stop offset="1" stop-color="#D8F7F9"/>
</radialGradient>
<radialGradient id="paint5_radial_0_417" cx="0" cy="0" r="1" gradientTransform="matrix(-65.3528 75.6902 -53.7882 -84.302 153.405 159.992)" gradientUnits="userSpaceOnUse">
<stop stop-color="#C2C5FD" stop-opacity="0"/>
<stop offset="0.510417" stop-color="#C5C8FD" stop-opacity="0.0989583"/>
<stop offset="1" stop-color="#E2E4FA"/>
</radialGradient>
<radialGradient id="paint6_radial_0_417" cx="0" cy="0" r="1" gradientTransform="matrix(29.6624 95.4994 -87.1089 49.1126 153.741 159.387)" gradientUnits="userSpaceOnUse">
<stop stop-color="#F3DAFA" stop-opacity="0"/>
<stop offset="0.307292" stop-color="#F3DAFA" stop-opacity="0.0885417"/>
<stop offset="0.848958" stop-color="#F3DAFA"/>
</radialGradient>
<radialGradient id="paint7_radial_0_417" cx="0" cy="0" r="1" gradientTransform="matrix(43.3852 -72.5664 59.3683 64.4297 146.723 158.863)" gradientUnits="userSpaceOnUse">
<stop stop-color="#F3F3FD" stop-opacity="0"/>
<stop offset="0.546875" stop-color="#F3F3FD" stop-opacity="0.0989583"/>
<stop offset="1" stop-color="#F3F3FD"/>
</radialGradient>
<radialGradient id="paint8_radial_0_417" cx="0" cy="0" r="1" gradientTransform="matrix(-87.1774 4.46639 -2.51695 -89.1758 177.664 141.642)" gradientUnits="userSpaceOnUse">
<stop stop-color="#D1BBFD" stop-opacity="0"/>
<stop offset="0.411458" stop-color="#D1BBFD" stop-opacity="0.109375"/>
<stop offset="1" stop-color="#D1BBFD"/>
</radialGradient>
<radialGradient id="paint9_radial_0_417" cx="0" cy="0" r="1" gradientUnits="userSpaceOnUse" gradientTransform="translate(154.969 146.001) rotate(166.741) scale(100)">
<stop stop-color="#D8F7F9" stop-opacity="0"/>
<stop offset="0.453125" stop-color="#D8F7F9" stop-opacity="0.0885417"/>
<stop offset="1" stop-color="#D8F7F9"/>
</radialGradient>
<radialGradient id="paint10_radial_0_417" cx="0" cy="0" r="1" gradientUnits="userSpaceOnUse" gradientTransform="translate(153.969 136.5) rotate(90) scale(76.5 100)">
<stop stop-color="#D8F7F9" stop-opacity="0"/>
<stop offset="0.453125" stop-color="#D8F7F9" stop-opacity="0.0885417"/>
<stop offset="1" stop-color="#D8F7F9"/>
</radialGradient>
<radialGradient id="paint11_radial_0_417" cx="0" cy="0" r="1" gradientTransform="matrix(69.9314 47.4593 -59.3896 60.1303 160.29 133.589)" gradientUnits="userSpaceOnUse">
<stop stop-color="#E1F1FE" stop-opacity="0"/>
<stop offset="0.421875" stop-color="#E1F1FE" stop-opacity="0.0989583"/>
<stop offset="1" stop-color="#E1F1FE"/>
</radialGradient>
<radialGradient id="paint12_radial_0_417" cx="0" cy="0" r="1" gradientUnits="userSpaceOnUse" gradientTransform="translate(150.413 152.425) rotate(170.27) scale(105.917)">
<stop stop-color="#D8F7F9" stop-opacity="0"/>
<stop offset="0.453125" stop-color="#D8F7F9" stop-opacity="0.0885417"/>
<stop offset="1" stop-color="#D8F7F9"/>
</radialGradient>
<radialGradient id="paint13_radial_0_417" cx="0" cy="0" r="1" gradientTransform="matrix(63.9073 62.3297 -52.5939 71.4541 130.471 150.784)" gradientUnits="userSpaceOnUse">
<stop stop-color="#F3DAFA" stop-opacity="0"/>
<stop offset="0.307292" stop-color="#F3DAFA" stop-opacity="0.0885417"/>
<stop offset="0.848958" stop-color="#F3DAFA"/>
</radialGradient>
<radialGradient id="paint14_radial_0_417" cx="0" cy="0" r="1" gradientTransform="matrix(82.7444 56.1549 -70.2711 71.1475 153.985 160.007)" gradientUnits="userSpaceOnUse">
<stop stop-color="#F3F3FD" stop-opacity="0"/>
<stop offset="0.546875" stop-color="#F3F3FD" stop-opacity="0.0989583"/>
<stop offset="1" stop-color="#F3F3FD"/>
</radialGradient>
<radialGradient id="paint15_radial_0_417" cx="0" cy="0" r="1" gradientTransform="matrix(-75.563 65.4999 -65.888 -75.2248 158.441 161.99)" gradientUnits="userSpaceOnUse">
<stop stop-color="#D8F7F9" stop-opacity="0"/>
<stop offset="0.723958" stop-color="#D8F7F9" stop-opacity="0.0885417"/>
<stop offset="1" stop-color="#D8F7F9"/>
</radialGradient>
<radialGradient id="paint16_radial_0_417" cx="0" cy="0" r="1" gradientUnits="userSpaceOnUse" gradientTransform="translate(154.325 160.02) rotate(139.317) scale(100)">
<stop stop-color="#C2C5FD" stop-opacity="0"/>
<stop offset="0.510417" stop-color="#C5C8FD" stop-opacity="0.0989583"/>
<stop offset="1" stop-color="#E2E4FA"/>
</radialGradient>
<radialGradient id="paint17_radial_0_417" cx="0" cy="0" r="1" gradientUnits="userSpaceOnUse" gradientTransform="translate(162.577 147.607) rotate(-51.1483) scale(100)">
<stop stop-color="#F3F3FD" stop-opacity="0"/>
<stop offset="0.546875" stop-color="#F3F3FD" stop-opacity="0.0989583"/>
<stop offset="1" stop-color="#F3F3FD"/>
</radialGradient>
<radialGradient id="paint18_radial_0_417" cx="0" cy="0" r="1" gradientTransform="matrix(71.5264 -69.8854 -81.9583 -57.296 153.485 160.411)" gradientUnits="userSpaceOnUse">
<stop stop-color="#C2C5FD" stop-opacity="0"/>
<stop offset="0.510417" stop-color="#C5C8FD" stop-opacity="0.0989583"/>
<stop offset="1" stop-color="#E2E4FA"/>
</radialGradient>
</defs>
</svg>
