<svg preserveAspectRatio="none" width="100%" height="100%" overflow="visible" style="display: block;" viewBox="0 0 36 36" fill="none" xmlns="http://www.w3.org/2000/svg">
<g id="Frame">
<path id="Vector" fill-rule="evenodd" clip-rule="evenodd" d="M18.3755 1.83798L32.175 8.7003C32.5125 8.85077 32.663 9.18828 32.663 9.52578C32.2875 15.6753 30.7125 20.6253 28.2375 24.6753C25.7625 28.7253 22.4253 31.8008 18.4498 34.1631C18.1503 34.3501 17.8128 34.3136 17.5498 34.1631C13.6121 31.8006 10.2375 28.7253 7.76214 24.6753C5.32512 20.5875 3.74994 15.6375 3.37446 9.48762C3.33649 9.11214 3.56149 8.81262 3.86244 8.66214L17.6242 1.83762C17.8492 1.68715 18.1501 1.72512 18.3751 1.83762L18.3755 1.83798ZM19.388 22.5002H16.5755C16.463 22.5002 16.3884 22.4622 16.2759 22.4622C15.8259 22.3117 15.6009 21.8252 15.7514 21.3752L16.6514 18.8257C16.2014 18.6007 15.7894 18.2252 15.5264 17.8132C15.2269 17.3632 15.0384 16.8007 15.0384 16.2382C15.0384 15.4127 15.3759 14.7011 15.9005 14.1752C16.425 13.6507 17.138 13.3132 17.9634 13.3132C18.7509 13.3132 19.5005 13.6507 20.0264 14.1752C20.5509 14.6997 20.8884 15.4127 20.8884 16.2382C20.8884 16.8007 20.7014 17.3632 20.4384 17.8132C20.1755 18.2252 19.7634 18.6007 19.3134 18.8257L20.1755 21.3386C20.2134 21.4511 20.25 21.5636 20.25 21.6761C20.25 22.1247 19.8745 22.5002 19.388 22.5002V22.5002Z" fill="var(--fill-0, #00E1F0)"/>
</g>
</svg>
