<svg preserveAspectRatio="none" width="100%" height="100%" overflow="visible" style="display: block;" viewBox="0 0 37.9226 27.9241" fill="none" xmlns="http://www.w3.org/2000/svg">
<g id="Group">
<path id="Vector" d="M33.6797 15.6026H23.2797C22.7594 15.6026 22.3594 15.2026 22.3594 14.6823V4.28228C22.3594 3.76196 21.9187 3.32292 21.4 3.36196C17.8 3.64165 14.6796 5.48228 12.6 8.20276C11.4 7.52308 10 7.12308 8.5204 7.12308C3.8 7.12308 0 10.9637 0 15.6435C0 20.3232 3.84064 24.1639 8.5204 24.1639C10.0407 24.1639 11.4407 23.7232 12.6796 23.0436C14.9202 25.9639 18.4 27.8844 22.2388 27.9232C28.798 28.0028 34.1592 23.0028 34.6388 16.6028C34.6794 16.0418 34.2388 15.6028 33.6794 15.6028L33.6797 15.6026ZM2.11888 15.6417C2.11888 12.1213 4.95952 9.28247 8.47808 9.28247C11.9984 9.28247 14.8373 12.1231 14.8373 15.6417C14.8373 19.162 11.9966 22.0009 8.47808 22.0009C4.95932 22.0024 2.11888 19.1212 2.11888 15.6417V15.6417Z" fill="var(--fill-0, #FF7F5C)"/>
<path id="Vector_2" d="M26.6389 0.00260294C26.1186 -0.0380211 25.6795 0.402603 25.6795 0.922923V11.3229C25.6795 11.8432 26.0795 12.2432 26.5998 12.2432H36.9998C37.5202 12.2432 37.9592 11.8026 37.9202 11.2839C37.4795 5.28228 32.6794 0.482283 26.639 0.00268267L26.6389 0.00260294Z" fill="var(--fill-0, #FF7F5C)"/>
<path id="Vector_3" d="M8.83888 14.8414H8.1592C7.9592 14.8414 7.79982 14.7617 7.63888 14.6008C7.51857 14.4414 7.43888 14.2805 7.4795 14.0805C7.52013 13.7211 7.83888 13.4805 8.19982 13.4805H8.95918C9.15918 13.4805 9.31856 13.6008 9.35918 13.8008C9.39981 13.9601 9.51856 14.0805 9.71856 14.0805H10.5982C10.7186 14.0805 10.7982 14.0398 10.8779 13.9601C10.9576 13.8805 10.9576 13.8008 10.9576 13.6805C10.8779 12.7601 10.1576 12.0398 9.27794 11.9211V11.2008C9.27794 11.0008 9.11856 10.8414 8.91856 10.8414H8.03888C7.83888 10.8414 7.6795 11.0008 7.6795 11.2008V11.9617C6.55918 12.2023 5.75918 13.2414 5.8795 14.4023C5.99982 15.5617 6.99982 16.443 8.19982 16.443H8.75918C8.95918 16.443 9.11856 16.5227 9.2795 16.6836C9.39982 16.843 9.4795 17.0039 9.43888 17.2039C9.39826 17.5633 9.0795 17.8039 8.71856 17.8039H7.9592C7.7592 17.8039 7.59982 17.6836 7.5592 17.4836C7.51858 17.3242 7.39982 17.2039 7.19982 17.2039H6.32014C6.19983 17.2039 6.12014 17.2445 6.04046 17.3242C5.96077 17.4039 5.96077 17.4836 5.96077 17.6039C6.04046 18.5242 6.76077 19.2446 7.64045 19.3633V20.0836C7.64045 20.2836 7.79982 20.443 7.99982 20.443H8.8795C9.0795 20.443 9.23888 20.2836 9.23888 20.0836V19.3242C10.1982 19.0836 10.9186 18.3242 11.0389 17.3649C11.1186 16.7242 10.8795 16.0852 10.4795 15.6055C10.0795 15.1212 9.47952 14.8414 8.83888 14.8414V14.8414Z" fill="var(--fill-0, #FF7F5C)"/>
</g>
</svg>
