<svg preserveAspectRatio="none" width="100%" height="100%" overflow="visible" style="display: block;" viewBox="0 0 37.17 36.39" fill="none" xmlns="http://www.w3.org/2000/svg">
<g id="Vector">
<path d="M36.795 26.775L32.175 22.155L22.995 31.335L27.615 36.015L36.795 26.775ZM4.995 21.675L0.375 26.295L9.495 35.475L14.175 30.795L4.995 21.675ZM25.155 6.975V0.375H12.195V6.975H25.155Z" fill="var(--fill-0, #A7F500)"/>
<path d="M20.655 19.095V23.115C20.715 24.495 22.995 24.375 22.995 22.935V16.875C23.295 18.315 25.275 18.315 25.335 16.695V13.995C25.515 12.855 23.715 11.715 23.055 10.995L22.515 6.975M31.575 22.695L25.335 16.695ZM20.655 23.115C20.655 23.655 20.775 24.495 20.295 24.915C19.815 25.335 19.215 25.275 18.675 24.855C18.255 24.495 18.315 24.135 18.315 23.475C17.955 24.855 15.975 24.615 15.975 22.695C16.035 24.195 13.6349 24.015 13.6349 22.575V10.875L15.375 6.975M8.71497 21.375L6.61499 23.295Z" fill="var(--fill-0, #A7F500)"/>
<path d="M13.6349 14.955C12.9149 14.895 11.475 14.955 10.995 15.315C10.155 15.915 8.41496 17.475 8.53496 18.615L8.71497 21.375M17.175 25.635L19.2149 27.315C20.4749 28.215 22.6949 27.615 23.6549 27.795L25.155 29.175M15.975 22.695L15.975 19.095ZM18.315 23.475C18.255 22.395 18.315 19.095 18.315 19.095ZM13.2749 29.895L17.7749 24.675Z" fill="var(--fill-0, #A7F500)"/>
<path d="M31.575 27.315L30.915 27.975ZM16.215 3.675H17.175ZM20.175 3.675H21.1349ZM18.195 3.675H19.215ZM5.53497 26.775L6.255 27.495ZM8.35498 29.595L9.07495 30.315ZM28.815 30.075L28.095 30.795ZM30.195 28.695L29.475 29.415ZM6.91498 28.215L7.63495 28.935Z" fill="var(--fill-0, #A7F500)"/>
<path d="M20.655 19.095V23.115M20.655 23.115C20.715 24.495 22.995 24.375 22.995 22.935V16.875C23.295 18.315 25.275 18.315 25.335 16.695M20.655 23.115C20.655 23.655 20.775 24.495 20.295 24.915C19.815 25.335 19.215 25.275 18.675 24.855C18.255 24.495 18.315 24.135 18.315 23.475M25.335 16.695V13.995C25.515 12.855 23.715 11.715 23.055 10.995L22.515 6.975M25.335 16.695L31.575 22.695M18.315 23.475C17.955 24.855 15.975 24.615 15.975 22.695M18.315 23.475C18.255 22.395 18.315 19.095 18.315 19.095M15.975 22.695C16.035 24.195 13.6349 24.015 13.6349 22.575V10.875L15.375 6.975M15.975 22.695L15.975 19.095M6.61499 23.295L8.71497 21.375L8.53496 18.615C8.41496 17.475 10.155 15.915 10.995 15.315C11.475 14.955 12.9149 14.895 13.6349 14.955M17.175 25.635L19.2149 27.315C20.4749 28.215 22.6949 27.615 23.6549 27.795L25.155 29.175M13.2749 29.895L17.7749 24.675M31.575 27.315L30.915 27.975M16.215 3.675H17.175M20.175 3.675H21.1349M18.195 3.675H19.215M5.53497 26.775L6.255 27.495M8.35498 29.595L9.07495 30.315M28.815 30.075L28.095 30.795M30.195 28.695L29.475 29.415M6.91498 28.215L7.63495 28.935M36.795 26.775L32.175 22.155L22.995 31.335L27.615 36.015L36.795 26.775ZM4.995 21.675L0.375 26.295L9.495 35.475L14.175 30.795L4.995 21.675ZM25.155 6.975V0.375H12.195V6.975H25.155Z" stroke="var(--stroke-0, black)" stroke-width="0.75" stroke-linecap="round" stroke-linejoin="round"/>
</g>
</svg>
