<svg preserveAspectRatio="none" width="100%" height="100%" overflow="visible" style="display: block;" viewBox="0 0 35.3384 35.0805" fill="none" xmlns="http://www.w3.org/2000/svg">
<g id="Vector">
<path d="M12.2235 5.33556L14.3435 7.40554L13.8435 10.3256C13.7635 10.7756 14.0635 11.1956 14.5135 11.2756C14.6935 11.3056 14.8735 11.2755 15.0335 11.1955L17.6535 9.81554L20.2735 11.1955C20.6735 11.4055 21.1735 11.2555 21.3835 10.8455C21.4635 10.6855 21.4935 10.5056 21.4635 10.3256L20.9635 7.40554L23.0835 5.33556C23.4135 5.01556 23.4135 4.49555 23.0935 4.16555C22.9635 4.03555 22.8035 3.95556 22.6235 3.92556L19.6935 3.49557L18.3835 0.835564C18.1835 0.425564 17.6835 0.255569 17.2835 0.465569C17.1235 0.545569 16.9935 0.675564 16.9135 0.835564L15.6035 3.49557L12.6735 3.92556C12.2235 3.99556 11.9135 4.40555 11.9735 4.85555C12.0035 5.03555 12.0835 5.20555 12.2135 5.32555L12.2235 5.33556Z" fill="var(--fill-0, #CBB1FD)"/>
<path d="M34.9335 13.0556C34.8835 12.8856 34.7835 12.7256 34.6335 12.6156L32.2635 10.8356L32.3835 7.87554C32.4035 7.42554 32.0535 7.03555 31.5935 7.01555C31.4135 7.01555 31.2335 7.06555 31.0835 7.16555L28.6635 8.87554L25.8835 7.84554C25.4535 7.68554 24.9835 7.90556 24.8235 8.33556C24.7635 8.50556 24.7535 8.69556 24.8135 8.86556L25.6835 11.6955L23.8435 14.0255C23.5635 14.3855 23.6235 14.9056 23.9835 15.1856C24.1235 15.2956 24.3035 15.3556 24.4835 15.3656L27.4435 15.4055L29.0835 17.8756C29.2335 18.1056 29.4935 18.2456 29.7735 18.2456C29.8135 18.2456 29.8435 18.2456 29.8835 18.2456C30.1935 18.2056 30.4535 17.9956 30.5535 17.6956L31.5135 14.8856L34.3635 14.0855C34.8035 13.9655 35.0535 13.5055 34.9335 13.0655V13.0556Z" fill="var(--fill-0, #CBB1FD)"/>
<path d="M7.90358 15.4055L10.8635 15.3656C11.3235 15.3656 11.6835 14.9855 11.6735 14.5255C11.6735 14.3455 11.6035 14.1655 11.4935 14.0255L9.65358 11.6956L10.5236 8.86556C10.6536 8.43556 10.4135 7.96556 9.98354 7.83556C9.81354 7.78556 9.62357 7.78554 9.45357 7.84554L6.67354 8.87554L4.25356 7.16555C3.88356 6.90555 3.36353 6.99556 3.10353 7.36556C3.00353 7.51556 2.94357 7.69554 2.95357 7.87554L3.07356 10.8356L0.70357 12.6156C0.34357 12.8856 0.263536 13.4056 0.543536 13.7656C0.653536 13.9056 0.803538 14.0156 0.983538 14.0656L3.83357 14.8656L4.79354 17.6756C4.94354 18.1056 5.41352 18.3356 5.84352 18.1856C6.01352 18.1256 6.16357 18.0156 6.26357 17.8656L7.90358 15.3955V15.4055Z" fill="var(--fill-0, #CBB1FD)"/>
<path d="M29.2035 23.1655C29.2035 22.2555 28.4635 21.5155 27.5535 21.5155H21.5135V17.7355C21.5135 16.7055 21.5135 14.6555 18.8135 14.3955C18.5135 14.3655 18.2436 14.5855 18.2136 14.8955C18.2136 14.9155 18.2136 14.9256 18.2136 14.9456V18.6755C18.2136 18.7755 18.1835 18.8755 18.1335 18.9655L16.5635 21.5155H16.6335L13.2736 23.7155V32.5056C13.2736 33.7156 14.2535 34.7055 15.4735 34.7055H26.4636C27.3736 34.7055 28.1135 33.9655 28.1135 33.0555C28.1135 32.1455 27.3736 31.4055 26.4636 31.4055H27.0135C27.9235 31.4055 28.6635 30.6656 28.6635 29.7556C28.6635 28.8456 27.9235 28.1055 27.0135 28.1055H27.5635C28.4735 28.1055 29.2136 27.3655 29.2136 26.4555C29.2136 25.5455 28.4735 24.8055 27.5635 24.8055C28.4735 24.8055 29.2136 24.0655 29.2136 23.1555L29.2035 23.1655Z" fill="var(--fill-0, #CBB1FD)"/>
<path d="M12.4535 21.5155H6.96355C6.50355 21.5155 6.14355 21.8855 6.14355 22.3355V33.8756C6.14355 34.3356 6.51355 34.6956 6.96355 34.6956H12.4535C12.9135 34.6956 13.2736 34.3256 13.2736 33.8756V22.3355C13.2736 21.8755 12.9035 21.5155 12.4535 21.5155ZM9.8435 33.3955C9.3835 33.3955 9.02355 33.0256 9.02355 32.5756C9.02355 32.1256 9.3935 31.7556 9.8435 31.7556C10.2935 31.7556 10.6635 32.1256 10.6635 32.5756C10.6635 33.0256 10.2935 33.3955 9.8435 33.3955Z" fill="var(--fill-0, #CBB1FD)"/>
<path d="M9.8435 33.3955C10.2964 33.3955 10.6635 33.0285 10.6635 32.5756C10.6635 32.1227 10.2964 31.7556 9.8435 31.7556C9.39062 31.7556 9.02355 32.1227 9.02355 32.5756C9.02355 33.0285 9.39062 33.3955 9.8435 33.3955Z" fill="var(--fill-0, #CBB1FD)"/>
<path d="M9.8435 33.3955C9.3835 33.3955 9.02355 33.0256 9.02355 32.5756M9.8435 33.3955C10.2935 33.3955 10.6635 33.0256 10.6635 32.5756M9.8435 33.3955C10.2964 33.3955 10.6635 33.0285 10.6635 32.5756M9.8435 33.3955C9.39062 33.3955 9.02355 33.0285 9.02355 32.5756M9.02355 32.5756C9.02355 32.1256 9.3935 31.7556 9.8435 31.7556M9.02355 32.5756C9.02355 32.1227 9.39062 31.7556 9.8435 31.7556M9.8435 31.7556C10.2935 31.7556 10.6635 32.1256 10.6635 32.5756M9.8435 31.7556C10.2964 31.7556 10.6635 32.1227 10.6635 32.5756M12.2235 5.33556L14.3435 7.40554L13.8435 10.3256C13.7635 10.7756 14.0635 11.1956 14.5135 11.2756C14.6935 11.3056 14.8735 11.2755 15.0335 11.1955L17.6535 9.81554L20.2735 11.1955C20.6735 11.4055 21.1735 11.2555 21.3835 10.8455C21.4635 10.6855 21.4935 10.5056 21.4635 10.3256L20.9635 7.40554L23.0835 5.33556C23.4135 5.01556 23.4135 4.49555 23.0935 4.16555C22.9635 4.03555 22.8035 3.95556 22.6235 3.92556L19.6935 3.49557L18.3835 0.835564C18.1835 0.425564 17.6835 0.255569 17.2835 0.465569C17.1235 0.545569 16.9935 0.675564 16.9135 0.835564L15.6035 3.49557L12.6735 3.92556C12.2235 3.99556 11.9135 4.40555 11.9735 4.85555C12.0035 5.03555 12.0835 5.20555 12.2135 5.32555L12.2235 5.33556ZM34.9335 13.0556C34.8835 12.8856 34.7835 12.7256 34.6335 12.6156L32.2635 10.8356L32.3835 7.87554C32.4035 7.42554 32.0535 7.03555 31.5935 7.01555C31.4135 7.01555 31.2335 7.06555 31.0835 7.16555L28.6635 8.87554L25.8835 7.84554C25.4535 7.68554 24.9835 7.90556 24.8235 8.33556C24.7635 8.50556 24.7535 8.69556 24.8135 8.86556L25.6835 11.6955L23.8435 14.0255C23.5635 14.3855 23.6235 14.9056 23.9835 15.1856C24.1235 15.2956 24.3035 15.3556 24.4835 15.3656L27.4435 15.4055L29.0835 17.8756C29.2335 18.1056 29.4935 18.2456 29.7735 18.2456C29.8135 18.2456 29.8435 18.2456 29.8835 18.2456C30.1935 18.2056 30.4535 17.9956 30.5535 17.6956L31.5135 14.8856L34.3635 14.0855C34.8035 13.9655 35.0535 13.5055 34.9335 13.0655V13.0556ZM7.90358 15.4055L10.8635 15.3656C11.3235 15.3656 11.6835 14.9855 11.6735 14.5255C11.6735 14.3455 11.6035 14.1655 11.4935 14.0255L9.65358 11.6956L10.5236 8.86556C10.6536 8.43556 10.4135 7.96556 9.98354 7.83556C9.81354 7.78556 9.62357 7.78554 9.45357 7.84554L6.67354 8.87554L4.25356 7.16555C3.88356 6.90555 3.36353 6.99556 3.10353 7.36556C3.00353 7.51556 2.94357 7.69554 2.95357 7.87554L3.07356 10.8356L0.70357 12.6156C0.34357 12.8856 0.263536 13.4056 0.543536 13.7656C0.653536 13.9056 0.803538 14.0156 0.983538 14.0656L3.83357 14.8656L4.79354 17.6756C4.94354 18.1056 5.41352 18.3356 5.84352 18.1856C6.01352 18.1256 6.16357 18.0156 6.26357 17.8656L7.90358 15.3955V15.4055ZM29.2035 23.1655C29.2035 22.2555 28.4635 21.5155 27.5535 21.5155H21.5135V17.7355C21.5135 16.7055 21.5135 14.6555 18.8135 14.3955C18.5135 14.3655 18.2436 14.5855 18.2136 14.8955C18.2136 14.9155 18.2136 14.9256 18.2136 14.9456V18.6755C18.2136 18.7755 18.1835 18.8755 18.1335 18.9655L16.5635 21.5155H16.6335L13.2736 23.7155V32.5056C13.2736 33.7156 14.2535 34.7055 15.4735 34.7055H26.4636C27.3736 34.7055 28.1135 33.9655 28.1135 33.0555C28.1135 32.1455 27.3736 31.4055 26.4636 31.4055H27.0135C27.9235 31.4055 28.6635 30.6656 28.6635 29.7556C28.6635 28.8456 27.9235 28.1055 27.0135 28.1055H27.5635C28.4735 28.1055 29.2136 27.3655 29.2136 26.4555C29.2136 25.5455 28.4735 24.8055 27.5635 24.8055C28.4735 24.8055 29.2136 24.0655 29.2136 23.1555L29.2035 23.1655ZM12.4535 21.5155H6.96355C6.50355 21.5155 6.14355 21.8855 6.14355 22.3355V33.8756C6.14355 34.3356 6.51355 34.6956 6.96355 34.6956H12.4535C12.9135 34.6956 13.2736 34.3256 13.2736 33.8756V22.3355C13.2736 21.8755 12.9035 21.5155 12.4535 21.5155Z" stroke="var(--stroke-0, black)" stroke-width="0.75" stroke-linecap="round" stroke-linejoin="round"/>
</g>
</svg>
