<svg preserveAspectRatio="none" width="100%" height="100%" overflow="visible" style="display: block;" viewBox="0 0 32.557 32.82" fill="none" xmlns="http://www.w3.org/2000/svg">
<g id="Vector">
<path d="M8.82501 18.505L9.72498 17.455C7.40498 16.205 5.82501 13.755 5.82501 10.935C5.82501 6.855 9.13497 3.54501 13.215 3.54501C17.295 3.54501 20.605 6.855 20.605 10.935C20.605 13.845 18.915 16.355 16.475 17.565L17.275 18.505H14.635C14.635 19.435 14.745 20.395 14.945 21.345C19.955 20.515 23.775 16.175 23.775 10.935C23.775 5.105 19.045 0.375 13.215 0.375C7.38497 0.375 2.65497 5.105 2.65497 10.935C2.65497 16.065 6.31498 20.335 11.165 21.295C11.355 20.355 11.465 19.415 11.465 18.505H8.82501Z" fill="var(--fill-0, #F5B500)"/>
<path d="M32.025 9.80499L30.415 8.27499L31.475 6.26501C31.605 6.02501 31.525 5.715 31.285 5.565C31.175 5.495 31.045 5.47499 30.925 5.49499L27.275 6.05499C27.115 6.08499 26.9649 6.18501 26.8949 6.32501L25.6449 8.65499C25.5349 8.86499 25.575 9.115 25.745 9.285L27.635 11.125C27.755 11.245 27.9149 11.295 28.0849 11.275L31.735 10.705C32.165 10.635 32.335 10.105 32.015 9.80499H32.025Z" fill="var(--fill-0, #F5B500)"/>
<path d="M17.435 10.945C17.435 8.61501 15.545 6.72501 13.215 6.72501C10.885 6.72501 8.995 8.61501 8.995 10.945C8.995 12.815 10.205 14.395 11.885 14.955L13.055 13.585L14.295 15.025C16.105 14.545 17.445 12.905 17.445 10.945H17.435Z" fill="var(--fill-0, #F5B500)"/>
<path d="M25.715 32.445C20.485 32.445 16.105 26.915 14.935 21.345C14.735 20.385 14.625 19.435 14.625 18.505H17.265L16.465 17.565L14.285 15.015L13.045 13.575L11.875 14.945L9.72498 17.455L8.82501 18.505H11.465C11.465 19.415 11.355 20.355 11.165 21.295C10.005 26.875 5.615 32.445 0.375 32.445" fill="var(--fill-0, #F5B500)"/>
<path d="M9.72498 17.455L8.82501 18.505H11.465C11.465 19.415 11.355 20.355 11.165 21.295M9.72498 17.455C7.40498 16.205 5.82501 13.755 5.82501 10.935C5.82501 6.855 9.13497 3.54501 13.215 3.54501C17.295 3.54501 20.605 6.855 20.605 10.935C20.605 13.845 18.915 16.355 16.475 17.565L17.275 18.505H14.635C14.635 19.435 14.745 20.395 14.945 21.345C19.955 20.515 23.775 16.175 23.775 10.935C23.775 5.105 19.045 0.375 13.215 0.375C7.38497 0.375 2.65497 5.105 2.65497 10.935C2.65497 16.065 6.31498 20.335 11.165 21.295M9.72498 17.455L11.875 14.945L13.045 13.575L14.285 15.015L16.465 17.565L17.265 18.505H14.625C14.625 19.435 14.735 20.385 14.935 21.345C16.105 26.915 20.485 32.445 25.715 32.445M11.165 21.295C10.005 26.875 5.615 32.445 0.375 32.445M25.585 8.995L13.495 11.435M32.025 9.80499L30.415 8.27499L31.475 6.26501C31.605 6.02501 31.525 5.715 31.285 5.565C31.175 5.495 31.045 5.47499 30.925 5.49499L27.275 6.05499C27.115 6.08499 26.9649 6.18501 26.8949 6.32501L25.6449 8.65499C25.5349 8.86499 25.575 9.115 25.745 9.285L27.635 11.125C27.755 11.245 27.9149 11.295 28.0849 11.275L31.735 10.705C32.165 10.635 32.335 10.105 32.015 9.80499H32.025ZM17.435 10.945C17.435 8.61501 15.545 6.72501 13.215 6.72501C10.885 6.72501 8.995 8.61501 8.995 10.945C8.995 12.815 10.205 14.395 11.885 14.955L13.055 13.585L14.295 15.025C16.105 14.545 17.445 12.905 17.445 10.945H17.435Z" stroke="var(--stroke-0, black)" stroke-width="0.75" stroke-linecap="round" stroke-linejoin="round"/>
</g>
</svg>
