<svg preserveAspectRatio="none" width="100%" height="100%" overflow="visible" style="display: block;" viewBox="0 0 32.7658 22.9954" fill="none" xmlns="http://www.w3.org/2000/svg">
<g id="Group">
<path id="Vector" d="M4.95569 19.5808C5.3213 19.5808 5.6813 19.4851 5.99911 19.3023C5.0949 18.2518 5.0949 16.6965 5.99911 15.6462C5.431 15.3213 4.74473 15.2791 4.14144 15.5323C3.53815 15.784 3.08675 16.3029 2.91942 16.9343C2.75208 17.5671 2.88708 18.2407 3.28644 18.7596C3.68442 19.2771 4.30175 19.5808 4.95565 19.5808L4.95569 19.5808Z" fill="var(--fill-0, #3734A9)"/>
<path id="Vector_2" d="M7.06205 17.4744C7.06205 19.318 6.02284 19.318 6.02284 17.4744C6.02284 15.6308 7.06205 15.6308 7.06205 17.4744Z" fill="var(--fill-0, #3734A9)"/>
<path id="Vector_3" d="M15.9947 16.2086H29.9166V18.7399H15.9947V16.2086Z" fill="var(--fill-0, #3734A9)"/>
<path id="Vector_4" d="M8.12945 19.5808C8.78475 19.5808 9.40212 19.2784 9.80147 18.7595C10.1994 18.2406 10.3358 17.567 10.1685 16.9342C9.99974 16.3014 9.54831 15.7825 8.94366 15.5308C8.34037 15.2791 7.65414 15.3213 7.08599 15.6461C7.9902 16.6966 7.9902 18.2519 7.08599 19.3023C7.4038 19.4851 7.7638 19.5807 8.12941 19.5807L8.12945 19.5808Z" fill="var(--fill-0, #3734A9)"/>
<path id="Vector_5" d="M0 5.34816H32.7658V9.63864H0V5.34816Z" fill="var(--fill-0, #3734A9)"/>
<path id="Vector_6" d="M0 22.9954H32.7658V10.3421H0V22.9954ZM15.2917 15.8573C15.2917 15.6632 15.4492 15.5057 15.6433 15.5057H30.2683C30.3611 15.5057 30.4511 15.5423 30.5172 15.6084C30.5833 15.6745 30.6198 15.7645 30.6198 15.8573V19.0917C30.6198 19.1845 30.5833 19.2745 30.5172 19.3406C30.4511 19.4067 30.3611 19.4432 30.2683 19.4432H15.6433C15.4492 19.4432 15.2917 19.2857 15.2917 19.0917V15.8573ZM4.95576 14.6648C5.52247 14.6648 6.07655 14.8363 6.54199 15.1584C7.40261 14.5678 8.51918 14.5031 9.44168 14.9882C10.3642 15.4748 10.9422 16.431 10.9422 17.4745C10.9422 18.5179 10.3642 19.4741 9.44168 19.9607C8.51918 20.4459 7.40261 20.3812 6.5434 19.7905H6.54199C5.80651 20.2954 4.87418 20.4205 4.03182 20.1266C3.18805 19.8341 2.53559 19.1577 2.2712 18.3055C2.00682 17.4519 2.16432 16.5252 2.69449 15.8066C3.22326 15.0894 4.06278 14.6647 4.95572 14.6647L4.95576 14.6648Z" fill="var(--fill-0, #3734A9)"/>
<path id="Vector_7" d="M0 0V4.64472H32.7658V0H0ZM2.6789 2.47079H1.63969V1.76767H2.6789V2.47079ZM10.2022 2.47079H3.50978V1.76767H10.2022V2.47079Z" fill="var(--fill-0, #3734A9)"/>
</g>
</svg>
