<svg preserveAspectRatio="none" width="100%" height="100%" overflow="visible" style="display: block;" viewBox="0 0 36 36" fill="none" xmlns="http://www.w3.org/2000/svg">
<g id="Instagram Fill">
<g id="Vector">
<path fill-rule="evenodd" clip-rule="evenodd" d="M18 3C13.926 3 13.416 3.017 11.816 3.09C10.219 3.163 9.128 3.417 8.174 3.788C7.174 4.164 6.267 4.754 5.517 5.518C4.75422 6.26713 4.16386 7.17349 3.787 8.174C3.418 9.128 3.163 10.22 3.09 11.817C3.018 13.416 3 13.925 3 18C3 22.075 3.017 22.584 3.09 24.184C3.163 25.781 3.417 26.872 3.788 27.826C4.164 28.826 4.754 29.733 5.518 30.483C6.26715 31.2458 7.17351 31.8361 8.174 32.213C9.128 32.583 10.219 32.837 11.816 32.91C13.416 32.983 13.926 33 18 33C22.074 33 22.584 32.983 24.184 32.91C25.781 32.837 26.872 32.583 27.826 32.212C28.826 31.836 29.733 31.246 30.483 30.482C31.2458 29.7329 31.8361 28.8265 32.213 27.826C32.583 26.872 32.837 25.781 32.91 24.184C32.983 22.584 33 22.074 33 18C33 13.926 32.983 13.416 32.91 11.816C32.837 10.219 32.583 9.128 32.212 8.174C31.8354 7.17306 31.245 6.26632 30.482 5.517C29.7329 4.75422 28.8265 4.16386 27.826 3.787C26.872 3.418 25.78 3.163 24.183 3.09C22.584 3.018 22.075 3 18 3ZM18 5.703C22.005 5.703 22.48 5.718 24.062 5.79C25.524 5.857 26.318 6.1 26.847 6.307C27.547 6.578 28.047 6.904 28.572 7.428C29.097 7.953 29.422 8.453 29.693 9.153C29.899 9.682 30.143 10.476 30.21 11.938C30.282 13.52 30.297 13.995 30.297 18C30.297 22.005 30.282 22.48 30.21 24.062C30.143 25.524 29.9 26.318 29.693 26.847C29.4529 27.4986 29.0699 28.088 28.572 28.572C28.0881 29.07 27.4986 29.4531 26.847 29.693C26.318 29.899 25.524 30.143 24.062 30.21C22.48 30.282 22.006 30.297 18 30.297C13.994 30.297 13.52 30.282 11.938 30.21C10.476 30.143 9.682 29.9 9.153 29.693C8.50146 29.4529 7.91201 29.0699 7.428 28.572C6.93018 28.088 6.54713 27.4985 6.307 26.847C6.101 26.318 5.857 25.524 5.79 24.062C5.718 22.48 5.703 22.005 5.703 18C5.703 13.995 5.718 13.52 5.79 11.938C5.857 10.476 6.1 9.682 6.307 9.153C6.578 8.453 6.904 7.953 7.428 7.428C7.91194 6.93004 8.50141 6.54698 9.153 6.307C9.682 6.101 10.476 5.857 11.938 5.79C13.52 5.718 13.995 5.703 18 5.703Z" fill="white"/>
<path fill-rule="evenodd" clip-rule="evenodd" d="M18 23.005C17.3428 23.005 16.6919 22.8755 16.0847 22.624C15.4775 22.3725 14.9257 22.0038 14.461 21.5391C13.9962 21.0743 13.6275 20.5226 13.376 19.9153C13.1245 19.3081 12.995 18.6573 12.995 18C12.995 17.3427 13.1245 16.6919 13.376 16.0847C13.6275 15.4774 13.9962 14.9257 14.461 14.4609C14.9257 13.9962 15.4775 13.6275 16.0847 13.376C16.6919 13.1245 17.3428 12.995 18 12.995C19.3274 12.995 20.6005 13.5223 21.5391 14.4609C22.4777 15.3996 23.005 16.6726 23.005 18C23.005 19.3274 22.4777 20.6005 21.5391 21.5391C20.6005 22.4777 19.3274 23.005 18 23.005ZM18 10.29C15.9552 10.29 13.9941 11.1023 12.5482 12.5482C11.1023 13.9941 10.29 15.9552 10.29 18C10.29 20.0448 11.1023 22.0059 12.5482 23.4518C13.9941 24.8977 15.9552 25.71 18 25.71C20.0448 25.71 22.0059 24.8977 23.4518 23.4518C24.8977 22.0059 25.71 20.0448 25.71 18C25.71 15.9552 24.8977 13.9941 23.4518 12.5482C22.0059 11.1023 20.0448 10.29 18 10.29ZM27.953 10.15C27.953 10.6334 27.761 11.0969 27.4192 11.4387C27.0774 11.7805 26.6139 11.9725 26.1305 11.9725C25.6472 11.9725 25.1836 11.7805 24.8418 11.4387C24.5 11.0969 24.308 10.6334 24.308 10.15C24.308 9.66664 24.5 9.20308 24.8418 8.8613C25.1836 8.51951 25.6472 8.3275 26.1305 8.3275C26.6139 8.3275 27.0774 8.51951 27.4192 8.8613C27.761 9.20308 27.953 9.66664 27.953 10.15Z" fill="white"/>
</g>
</g>
</svg>
