<svg preserveAspectRatio="none" width="100%" height="100%" overflow="visible" style="display: block;" viewBox="0 0 36 36" fill="none" xmlns="http://www.w3.org/2000/svg">
<g id="Whatsapp Fill">
<g id="Vector">
<path d="M3 33L5.11728 25.3037C3.81633 23.0459 3.13314 20.4852 3.13648 17.8795C3.12142 9.66824 9.78966 3 17.9849 3C21.9625 3 25.6972 4.5421 28.5093 7.3551C29.8954 8.73399 30.994 10.3742 31.7416 12.1808C32.4892 13.9874 32.8708 15.9243 32.8644 17.8795C32.8644 26.0747 26.1962 32.743 18 32.743C15.5052 32.743 13.0706 32.1226 10.8931 30.9288L3 33ZM11.2414 28.2523L11.6951 28.5244C13.5997 29.6514 15.7719 30.2467 17.9849 30.2482C24.7897 30.2482 30.3394 24.6993 30.3394 17.8936C30.3394 14.5976 29.0544 11.4833 26.7253 9.1551C25.5799 8.00329 24.218 7.08955 22.7179 6.46651C21.2178 5.84348 19.6093 5.52348 17.9849 5.52496C11.1651 5.52585 5.61713 11.0747 5.61713 17.8804C5.61713 20.2086 6.26765 22.4925 7.50753 24.4582L7.79468 24.927L6.53973 29.4931L11.2422 28.2532L11.2414 28.2523Z" fill="var(--fill-0, white)"/>
<path fill-rule="evenodd" clip-rule="evenodd" d="M14.2804 11.6499C14.0083 11.0295 13.7061 11.0145 13.449 11.0145C13.2222 10.9994 12.9793 10.9994 12.7223 10.9994C12.4812 10.9994 12.0727 11.0898 11.7253 11.4682C11.377 11.8458 10.4251 12.7383 10.4251 14.5675C10.4251 16.3976 11.7554 18.1666 11.9371 18.4086C12.1179 18.6505 14.5072 22.5208 18.288 24.0186C21.4325 25.2585 22.0679 25.0165 22.7486 24.9403C23.4284 24.865 24.9412 24.0487 25.2585 23.1713C25.5607 22.3099 25.5607 21.5539 25.4703 21.4024C25.3799 21.2517 25.122 21.1604 24.7595 20.9637C24.3811 20.7829 22.5669 19.8753 22.2195 19.7539C21.8712 19.6334 21.6292 19.5731 21.3873 19.9356C21.1453 20.314 20.4346 21.1453 20.2086 21.3873C19.9959 21.6292 19.7699 21.6594 19.4065 21.4777C19.0289 21.2969 17.8343 20.9034 16.4127 19.6334C15.3084 18.6496 14.5675 17.4257 14.3406 17.0632C14.1297 16.6848 14.3105 16.488 14.5072 16.3064C14.6739 16.1406 14.8857 15.8685 15.0674 15.6567C15.2482 15.444 15.3084 15.2783 15.4449 15.0363C15.5654 14.7944 15.5052 14.5675 15.4148 14.3867C15.3235 14.2201 14.6136 12.39 14.2804 11.649V11.6499Z" fill="var(--fill-0, white)"/>
</g>
</g>
</svg>
